# xmcd
#
# Track frame offsets:
#	150
#	19015
#	29701
#	48559
#	65368
#	80784
#	97315
#	113381
#	131714
#	148727
#
# Disc length: 2217 seconds
# Revision: 0
# Processed by: cddbd v1.5.2PL0 Copyright (c) Steve Scherf et al.
# Submitted via: dBpowerAMP V12.0
#
DISCID=9108a70a
DTITLE=Smalltown Blues Band - Living The Blues
DYEAR=2012
DGENRE=Blues
TTITLE0=Don't Let it Fool You
TTITLE1=I Believe, I Believe
TTITLE2=Try Again
TTITLE3=Living The Blues
TTITLE4=On And Off Blues
TTITLE5=Don't Make a Fool Out of me
TTITLE6=Turn of The Tide
TTITLE7=Rain
TTITLE8=Crazy 'bout That Woman
TTITLE9=Easy Lovin' Mama
EXTD=
EXTT0=
EXTT1=
EXTT2=
EXTT3=
EXTT4=
EXTT5=
EXTT6=
EXTT7=
EXTT8=
EXTT9=
PLAYORDER=
